#!OML:ASF F:\VICON\USERDATA\INSTALL\rory3\rory3.ASF
:FULLY-SPECIFIED
:DEGREES
1193
root 7.78075 17.6937 -5.91817 180.522 56.1073 178.726
lowerback 3.92923 1.23008 0.138225
upperback 1.85361 1.71738 2.03704
thorax -0.358593 0.877867 1.93929
lowerneck -8.52817 -1.2587 -3.25412
upperneck 32.9102 2.52063 -4.40451
head 12.3298 0.951236 -0.615505
rclavicle 4.32357e-014 2.38542e-015
rhumerus -37.3598 -10.045 -74.7716
rradius 25.3163
rwrist 0.273173
rhand -10.5043 15.8759
rfingers 7.12502
rthumb 15.498 -13.523
lclavicle 4.32357e-014 2.38542e-015
lhumerus -39.0046 -10.1819 90.9512
lradius 46.5116
lwrist 15.0767
lhand -4.90055 27.4182
lfingers 7.12502
lthumb 20.889 56.3136
rfemur -24.4706 1.73515 19.8795
rtibia 24.5334
rfoot -4.70251 -12.8952
rtoes -29.0621
lfemur 6.74191 -5.45726 -25.3872
ltibia 22.8569
lfoot -21.3601 8.45326
ltoes -25.1426
1194
root 7.87316 17.705 -5.94464 180.671 56.1419 178.81
lowerback 3.94019 1.22929 0.320403
upperback 1.84111 1.72564 2.1053
thorax -0.374616 0.883632 1.90642
lowerneck -8.58357 -1.2276 -3.16611
upperneck 32.9925 2.62854 -4.57916
head 12.3815 0.990996 -0.683176
rclavicle -6.15239e-014 2.38542e-014
rhumerus -37.3477 -10.2194 -74.6273
rradius 25.271
rwrist 0.349259
rhand -10.5889 15.7173
rfingers 7.12502
rthumb 15.4165 -13.6879
lclavicle -6.15239e-014 2.38542e-014
lhumerus -39.213 -9.809 90.8981
lradius 45.5528
lwrist 14.8851
lhand -5.00849 27.6666
lfingers 7.12502
lthumb 20.7853 56.5733
rfemur -24.3997 1.50618 20.125
rtibia 24.8112
rfoot -4.81538 -12.5327
rtoes -28.4114
lfemur 6.30538 -5.36923 -25.1542
ltibia 23.9965
lfoot -20.9832 7.92626
ltoes -23.6488
1195
root 7.96766 17.7152 -5.97137 180.648 56.1581 178.707
lowerback 3.91599 1.20376 0.334763
upperback 1.84721 1.69351 2.16483
thorax -0.35521 0.867995 1.96158
lowerneck -8.59602 -1.18056 -3.12557
upperneck 33.013 2.73349 -4.68884
head 12.3971 1.0309 -0.718351
rclavicle -5.91384e-014 -1.19271e-014
rhumerus -37.3658 -10.015 -74.6534
rradius 25.3295
rwrist 0.184124
rhand -10.7966 15.8193
rfingers 7.12502
rthumb 15.2165 -13.6011
lclavicle -5.91384e-014 -1.19271e-014
lhumerus -39.4729 -9.41979 90.8546
lradius 44.6038
lwrist 14.6644
lhand -5.04376 27.9499
lfingers 7.12502
lthumb 20.7514 56.8604
rfemur -24.2521 1.38111 20.2312
rtibia 25.0195
rfoot -4.87682 -12.3594
rtoes -27.6171
lfemur 5.7975 -5.28118 -25.0128
ltibia 25.3176
lfoot -20.5976 7.13494
ltoes -21.2397
1196
root 8.06304 17.7231 -5.9937 180.531 56.1658 178.563
lowerback 3.93957 1.17699 0.248549
upperback 1.89368 1.65767 2.24279
thorax -0.324184 0.850313 2.0918
lowerneck -8.54883 -1.11685 -3.20282
upperneck 32.9353 2.82955 -4.6859
head 12.3565 1.06579 -0.691146
rclavicle 1.37658e-013 -4.21423e-014
rhumerus -37.3101 -9.80402 -74.6456
rradius 25.3684
rwrist -0.00329548
rhand -10.8446 16.1522
rfingers 7.12502
rthumb 15.1701 -13.2717
lclavicle 1.37658e-013 -4.21423e-014
lhumerus -39.6358 -9.11017 90.8183
lradius 43.5446
lwrist 14.5277
lhand -4.79012 27.9434
lfingers 7.12502
lthumb 20.9951 56.8271
rfemur -24.0421 1.47191 20.2738
rtibia 25.265
rfoot -5.12549 -12.3127
rtoes -26.5306
lfemur 5.30687 -5.05913 -24.8697
ltibia 26.7169
lfoot -19.9367 6.53197
ltoes -20.881
1197
root 8.15597 17.7259 -6.01366 180.527 56.2129 178.56
lowerback 4.00636 1.17587 0.273998
upperback 1.93189 1.66116 2.31514
thorax -0.32377 0.853206 2.15082
lowerneck -8.45289 -1.06382 -3.39351
upperneck 32.8058 2.87348 -4.53855
head 12.2796 1.08111 -0.596153
rclavicle 1.39149e-015 -3.18055e-014
rhumerus -37.2466 -9.94425 -74.5192
rradius 25.3655
rwrist 0.110241
rhand -10.8495 16.3945
rfingers 7.12502
rthumb 15.1655 -13.0298
lclavicle 1.39149e-015 -3.18055e-014
lhumerus -39.7579 -8.85483 90.7509
lradius 42.5288
lwrist 14.3459
lhand -4.564 28.2264
lfingers 7.12502
lthumb 21.2123 57.0858
rfemur -23.8559 1.484 20.4229
rtibia 25.5005
rfoot -5.50356 -12.0959
rtoes -25.4369
lfemur 4.70812 -4.54644 -24.616
ltibia 28.2461
lfoot -18.9448 6.41794
ltoes -23.4134
1198
root 8.24903 17.7276 -6.03417 180.683 56.252 178.753
lowerback 4.0508 1.16751 0.460957
upperback 1.96833 1.66089 2.37635
thorax -0.30778 0.855316 2.10838
lowerneck -8.39221 -1.00501 -3.46448
upperneck 32.7544 2.93007 -4.43486
head 12.2437 1.11141 -0.537316
rclavicle -2.37548e-014 -1.11319e-014
rhumerus -37.2072 -9.98221 -74.5154
rradius 25.4272
rwrist 0.130068
rhand -10.8525 16.4902
rfingers 7.12502
rthumb 15.1626 -12.9343
lclavicle -2.37548e-014 -1.11319e-014
lhumerus -39.9629 -8.7176 90.6732
lradius 41.6932
lwrist 14.0756
lhand -4.42399 28.7955
lfingers 7.12502
lthumb 21.3468 57.6397
rfemur -23.6118 1.40311 20.7111
rtibia 25.6227
rfoot -5.85868 -11.7865
rtoes -24.8405
lfemur 3.97139 -3.98854 -24.2581
ltibia 30.0289
lfoot -17.7705 6.65891
ltoes -27.0599
1199
root 8.34344 17.7394 -6.05292 180.77 56.1992 178.899
lowerback 4.11719 1.13613 0.630542
upperback 2.01903 1.62916 2.40636
thorax -0.287984 0.841645 2.04473
lowerneck -8.40039 -0.954699 -3.31196
upperneck 32.7485 2.99955 -4.52237
head 12.2458 1.15039 -0.588328
rclavicle -1.70955e-014 1.27222e-014
rhumerus -37.1467 -9.88824 -74.6282
rradius 25.5279
rwrist -0.123985
rhand -10.9116 16.3241
rfingers 7.12502
rthumb 15.1056 -13.1047
lclavicle -1.70955e-014 1.27222e-014
lhumerus -40.1705 -8.72713 90.5859
lradius 40.9649
lwrist 13.9031
lhand -4.25694 29.305
lfingers 7.12502
lthumb 21.5072 58.1309
rfemur -23.1301 1.33518 20.9582
rtibia 25.4336
rfoot -6.02831 -11.6607
rtoes -24.2885
lfemur 3.12347 -3.43758 -23.8145
ltibia 32.0041
lfoot -16.6488 6.08328
ltoes -27.3481
1200
root 8.43816 17.7603 -6.07047 180.881 56.1027 179.104
lowerback 4.23075 1.07305 0.757638
upperback 2.07374 1.55776 2.51204
thorax -0.292532 0.80874 2.08364
lowerneck -8.43388 -0.911317 -3.25896
upperneck 32.7762 3.10288 -4.64702
head 12.2694 1.18853 -0.631448
rclavicle 4.27387e-014 -2.38542e-015
rhumerus -37.0453 -9.66289 -74.6948
rradius 25.6725
rwrist -0.444133
rhand -10.7865 16.1766
rfingers 7.12502
rthumb 15.2262 -13.2431
lclavicle 4.27387e-014 -2.38542e-015
lhumerus -40.2735 -8.44695 90.4654
lradius 40.0051
lwrist 13.5405
lhand -3.87165 29.3731
lfingers 7.12502
lthumb 21.8772 58.1563
rfemur -22.4924 1.2245 21.249
rtibia 25.0544
rfoot -5.96397 -11.7032
rtoes -23.8116
lfemur 2.09954 -2.79837 -23.2076
ltibia 34.247
lfoot -15.5709 4.65911
ltoes -24.0434
1201
root 8.53387 17.8025 -6.08865 181.112 56.0674 179.408
lowerback 4.31542 1.03185 0.912991
upperback 2.11264 1.51742 2.649
thorax -0.298281 0.79175 2.13804
lowerneck -8.37336 -0.846461 -3.35091
upperneck 32.704 3.19859 -4.62522
head 12.2277 1.22477 -0.594945
rclavicle 7.70291e-014 -5.725e-014
rhumerus -36.948 -9.41331 -74.7264
rradius 25.8097
rwrist -0.726481
rhand -10.4823 16.3605
rfingers 7.12502
rthumb 15.5192 -13.0367
lclavicle 7.70291e-014 -5.725e-014
lhumerus -40.372 -8.0142 90.2663
lradius 38.8985
lwrist 13.0981
lhand -3.28867 28.9206
lfingers 7.12502
lthumb 22.4369 57.6374
rfemur -21.7745 1.2749 21.5648
rtibia 24.494
rfoot -5.97913 -11.738
rtoes -22.698
lfemur 0.944237 -2.15429 -22.5584
ltibia 36.5719
lfoot -14.2556 3.51042
ltoes -22.1773
1202
root 8.6203 17.8191 -6.10473 181.455 56.0516 179.748
lowerback 4.35732 1.04862 1.20897
upperback 2.14029 1.55663 2.7074
thorax -0.288355 0.814942 2.02979
lowerneck -8.33884 -0.824635 -3.33144
upperneck 32.6201 3.19105 -4.5729
head 12.1839 1.22974 -0.579752
rclavicle 2.74323e-014 0
rhumerus -36.9036 -9.27109 -74.8432
rradius 26.0174
rwrist -1.04762
rhand -10.4045 16.5465
rfingers 7.12502
rthumb 15.5941 -12.8449
lclavicle 2.74323e-014 0
lhumerus -40.4747 -7.85598 90.0118
lradius 38.0295
lwrist 12.8265
lhand -2.88871 28.643
lfingers 7.12502
lthumb 22.8208 57.313
rfemur -21.2103 1.36414 21.8874
rtibia 23.905
rfoot -5.96992 -11.7251
rtoes -21.6502
lfemur -0.372145 -1.72228 -22.0045
ltibia 38.9786
lfoot -12.9784 2.8916
ltoes -23.0134
1203
root 8.70456 17.836 -6.1232 181.787 55.955 180.088
lowerback 4.41609 1.02093 1.58398
upperback 2.15332 1.53994 2.73008
thorax -0.298221 0.810584 1.84259
lowerneck -8.33123 -0.819042 -3.27636
upperneck 32.6127 3.18169 -4.56103
head 12.1787 1.23353 -0.586156
rclavicle 1.92821e-014 1.90833e-014
rhumerus -36.9261 -8.99067 -75.0694
rradius 26.3209
rwrist -1.40907
rhand -10.3763 16.3644
rfingers 7.12502
rthumb 15.6212 -13.0248
lclavicle 1.92821e-014 1.90833e-014
lhumerus -40.622 -7.78703 89.7675
lradius 37.3815
lwrist 12.5887
lhand -2.68539 28.8259
lfingers 7.12502
lthumb 23.0159 57.4717
rfemur -20.6935 1.16101 22.2529
rtibia 23.3637
rfoot -5.85017 -11.5578
rtoes -21.6645
lfemur -1.62904 -1.54816 -21.4954
ltibia 41.2904
lfoot -11.8539 2.21423
ltoes -20.9133
1204
root 8.78983 17.854 -6.14211 181.942 55.8669 180.279
lowerback 4.49643 0.98288 1.81361
upperback 2.18683 1.5056 2.78679
thorax -0.30357 0.796817 1.77269
lowerneck -8.31288 -0.815309 -3.28712
upperneck 32.5688 3.20431 -4.62467
head 12.1589 1.23567 -0.605453
rclavicle -3.72721e-014 1.27222e-014
rhumerus -36.9032 -8.67447 -75.2042
rradius 26.5921
rwrist -1.58015
rhand -10.4824 16.1682
rfingers 7.12502
rthumb 15.519 -13.229
lclavicle -3.72721e-014 1.27222e-014
lhumerus -40.7811 -7.77473 89.6522
lradius 36.7575
lwrist 12.2803
lhand -2.40181 29.0286
lfingers 7.12502
lthumb 23.288 57.6402
rfemur -20.2387 0.891387 22.5375
rtibia 23.0707
rfoot -5.89551 -11.3465
rtoes -21.739
lfemur -2.85854 -1.32544 -21.0745
ltibia 43.5851
lfoot -10.6776 1.6564
ltoes -18.3239
